<?xml version="1.0" encoding="UTF-8"?>
<svg id="Layer_1" xmlns="http://www.w3.org/2000/svg" version="1.1" viewBox="0 0 344.76 163.83">
  <!-- Generator: Adobe Illustrator 29.6.1, SVG Export Plug-In . SVG Version: 2.1.1 Build 9)  -->
  <defs>
    <style>
      .st0 {
        fill: #6ff;
      }
    </style>
  </defs>
  <path class="st0" d="M344.76,31.11v-5.11c0-14.34-11.66-26-26-26h-87.83c-3.81,0-7.5.85-10.85,2.4-3.35-1.55-7.04-2.4-10.85-2.4h-87.83c-4.48,0-8.76,1.13-12.54,3.21-2.02-.47-4.1-.71-6.22-.71-6.65,0-12.96,2.36-17.78,6.64l-27.75,24.6v-7.75C57.11,11.66,45.45,0,31.11,0h-5.11C11.66,0,0,11.66,0,26v111.83c0,14.34,11.66,26,26,26h5.11c14.34,0,26-11.66,26-26v-6.75l27.76,24.61c4.81,4.27,11.12,6.63,17.77,6.63,2.59,0,5.13-.36,7.55-1.05,3.46,1.66,7.28,2.55,11.21,2.55h87.83c4.27,0,8.35-1.03,11.97-2.91,3.04,1.23,6.33,1.89,9.73,1.89h87.83c14.34,0,26-11.66,26-26v-5.11c0-10.68-6.47-19.87-15.69-23.87,9.22-4,15.69-13.19,15.69-23.87v-5.11c0-10.68-6.47-19.87-15.69-23.87,9.22-4,15.69-13.19,15.69-23.87ZM330.76,31.11c0,6.6-5.4,12-12,12h-87.83c-.55,0-1.09-.04-1.62-.11-3.74-.51-6.95-2.76-8.76-5.91-.18-.29-.33-.58-.47-.88-.13.27-.26.54-.42.8-1.07,1.9-2.66,3.48-4.56,4.55-1.74.99-3.74,1.55-5.87,1.55h-70.73v77.61h51.32v-24.76h-10.8c-6.6,0-12-5.4-12-12v-5.11c0-6.6,5.4-12,12-12h139.74c6.6,0,12,5.4,12,12v5.11c0,6.6-5.4,12-12,12h-99.83v29.72s.07.1.1.15c.3.42.57.85.81,1.31.2-.49.43-.97.71-1.42,1.81-3.15,5.02-5.4,8.76-5.91.53-.07,1.07-.11,1.62-.11h87.83c6.6,0,12,5.4,12,12v5.11c0,6.6-5.4,12-12,12h-87.83c-4.59,0-8.6-2.61-10.61-6.42-1.8,4.36-6.1,7.44-11.09,7.44h-87.83c-4.02,0-7.59-2-9.77-5.05l-.5.44c-2.34,2.07-5.41,3.11-8.49,3.11s-6.15-1.04-8.48-3.11l-51.05-45.26v37.87c0,6.6-5.4,12-12,12h-5.11c-6.6,0-12-5.4-12-12V26c0-6.6,5.4-12,12-12h5.11c6.6,0,12,5.4,12,12v38.87l51.05-45.26c2.33-2.07,5.4-3.1,8.48-3.1s6.15,1.03,8.49,3.1l.08.07c2.13-3.4,5.91-5.68,10.19-5.68h87.83c4.78,0,8.93,2.83,10.85,6.9,1.92-4.07,6.07-6.9,10.85-6.9h87.83c6.6,0,12,5.4,12,12v5.11Z"/>
  <polygon class="st0" points="109.4 122.24 109.4 42.59 64.48 82.41 109.4 122.24"/>
  <circle class="st0" cx="28.2" cy="136" r="8.17"/>
  <circle class="st0" cx="28.2" cy="28.25" r="8.17"/>
  <circle class="st0" cx="314.16" cy="28.25" r="8.17" transform="translate(1.91 72.94) rotate(-13.28)"/>
  <circle class="st0" cx="314.16" cy="136" r="8.17" transform="translate(-4.15 261.98) rotate(-45)"/>
</svg>